<?xml version="1.0" encoding="utf-8"?>
<!-- Generator: Adobe Illustrator 23.1.1, SVG Export Plug-In . SVG Version: 6.00 Build 0)  -->
<svg version="1.1" id="圖層_1" xmlns="http://www.w3.org/2000/svg" xmlns:xlink="http://www.w3.org/1999/xlink" x="0px" y="0px"
	 viewBox="0 0 802 116" style="enable-background:new 0 0 802 116;" xml:space="preserve">
<style type="text/css">
	.st0{fill:#009FE8;}
	.st1{fill:none;stroke:#009FE8;stroke-width:5.2022;stroke-miterlimit:10;}
</style>
<g>
	<g>
		<path d="M475.9,107.3c-10.6,0-13.3,0.1-17.6,0.5c0.5-5.8,1.1-9.3,2.5-13.8c3.1-9.7,8.7-18.7,16.9-26.3c4.5-4.1,8.9-7.5,20.9-15.6
			c10.1-6.8,12.6-9.9,12.6-15.3c0-5.6-5-9.4-12.6-9.4c-5.6,0-9.6,1.9-12.2,5.9c-1.6,2.6-2.3,4.9-2.9,9.9l-24.6-2.6
			c1.8-10.2,3.9-15.4,8.6-20.9c6.7-7.9,17.4-12.1,31.1-12.1c15.8,0,27.9,5.3,33.8,14.8c2.6,4.1,3.9,8.7,3.9,13.7
			c0,8.6-3.5,15.8-10.8,21.8c-3.9,3.4-5,4.2-17,12.6c-10.2,7-14.6,11.1-17.3,16.3h27.3c8.8,0,14.2-0.2,18.8-0.8v22.2
			c-6.8-0.6-11.7-0.8-20.1-0.8H475.9z"/>
		<path d="M548.3,59c3.6,0.6,6.9,0.8,11.4,0.8H583c4.5,0,7.7-0.2,11.4-0.8v22.3c-3.9-0.6-7-0.8-11.4-0.8h-23.2
			c-4.3,0-7.5,0.2-11.4,0.8V59z"/>
		<path d="M601.5,66.4c5.3-5.9,5.3-5.9,11.3-12.9l25.5-29.8c5.6-6.5,7.9-9.4,10.9-14h24.1c-0.7,6.9-0.9,11.6-0.9,19.5v38.1h3.4
			c3.6,0,7.5-0.4,11.6-0.9v21.4c-3.5-0.5-7.9-0.7-11.5-0.7h-3.5v5.9c0,6.6,0.2,10,0.9,14.4H649c0.6-4,0.9-8.9,0.9-14.7v-5.8h-33.2
			c-7.6,0-10.9,0.1-15.3,0.5V66.4z M650.1,53.9c0-5.3,0.2-11.7,0.7-16.9c-2.3,3.3-4.1,5.6-7.3,9.6l-17.1,20.9h23.7V53.9z"/>
		<path d="M720.5,60.5c0,9.7-1.4,19.2-4.2,28.4c-3.1,9.5-7,17.8-11.7,25.2l-9.3-8.7c4-7.2,6.9-14.3,9-21.5
			c1.9-7.3,2.9-15.1,2.9-23.5V14.6c31.7-0.5,59.3-2.7,82.5-6.9l7.4,11.5c-22.1,4-47.6,6.5-76.6,7.2v2.5h76.2v27.9h-30.3v6.5h34.9
			v12.4h-50.5c-0.2,2-0.5,3.8-0.7,5.4h43.8c0,16.8-1.4,26.4-4,29.2c-2,2.8-6.9,4.3-14.8,4.3c-5.6,0-11.3-0.4-16.9-0.9l-2.8-12.9
			c8.2,0.9,14.8,1.4,19.7,1.4c1.9,0,3.1-0.2,3.5-0.9c0.9-0.9,1.5-3.8,1.5-8.7h-33.8c-2.1,3.9-4.8,7.4-8.2,10.7
			c-4.8,4.7-9.9,8.4-15.3,11.4l-7.4-11c4.5-2.5,8.6-5.5,12.3-9.2c3.5-3.4,6.1-6.9,7.7-10.6c0.9-2,1.8-4.7,2.2-8.2h-15.8V63.2h30.7
			v-6.5h-32.2V60.5z M720.5,44.9h63.3v-4.1h-63.3V44.9z"/>
	</g>
	<g>
		<g>
			<rect x="78.5" y="16.2" width="32.5" height="12.9"/>
			<rect x="78.5" y="47.1" width="37.3" height="12.9"/>
			<polygon class="st0" points="0.1,113.9 41.4,67.2 16.2,67.2 			"/>
			<polygon points="71.3,1.2 46.1,1.2 46.1,16.2 7,16.2 7,29.2 46.1,29.2 46.1,47.1 2.4,47.1 2.4,60 46.1,60 46.1,116.6 71.3,116.6 
							"/>
			<polygon points="101.9,67.2 76.2,67.2 117.8,113.9 			"/>
		</g>
		<g>
			<polygon class="st0" points="129.4,117.2 174.2,77.5 147.9,77.5 			"/>
			<rect x="207.3" y="12.3" width="37.9" height="12.9"/>
			<polygon points="222.3,60.5 246.3,72.3 228,42 231.9,30 210.4,30 200.1,63.4 200.1,1.6 176,1.6 176,12.3 130.4,12.3 130.4,25.3 
				176,25.3 176,61.9 161.2,42.2 164.8,30 143,30 130.2,72.3 155.5,60.6 176,72.3 176,117.2 200.1,117.2 200.1,72.3 			"/>
			<polygon points="228,77.5 202.1,77.5 247.5,117.2 			"/>
		</g>
		<g>
			<g>
				<polygon points="379.1,49.1 354.8,49.1 342.6,73.6 366.9,73.6 				"/>
				<polygon points="316,61.5 316,104.8 303.9,104.8 309.4,117.2 340.4,117.2 340.4,49.3 305.7,49.3 				"/>
				<polygon class="st0" points="367,78.1 343.5,78.1 380.4,117 				"/>
			</g>
			<polygon points="341.6,10.8 341.6,23.2 353.2,23.2 353.2,31.3 290.6,31.3 290.6,23.2 336.1,23.2 336.1,10.8 332.4,1.8 306.4,1.8 
				309.9,10.8 265.4,10.8 265.4,36.4 274.6,36.4 274.6,44 286.8,44 264.8,70.2 284.5,70.2 266.4,91.6 286.6,91.6 265,117.2 
				315.1,89.5 296.3,89.5 313.8,68.9 294.2,68.9 315.9,44 369.5,44 369.5,36.4 378.2,36.4 378.2,10.8 			"/>
		</g>
	</g>
	<line class="st1" x1="423" y1="113.8" x2="423" y2="20.8"/>
</g>
</svg>
