<?xml version="1.0" encoding="utf-8"?>
<!-- Generator: Adobe Illustrator 23.1.1, SVG Export Plug-In . SVG Version: 6.00 Build 0)  -->
<svg version="1.1" id="圖層_1" xmlns="http://www.w3.org/2000/svg" xmlns:xlink="http://www.w3.org/1999/xlink" x="0px" y="0px"
	 viewBox="0 0 455 140" style="enable-background:new 0 0 455 140;" xml:space="preserve">
<style type="text/css">
	.st0{fill:#00A0E9;}
</style>
<g>
	<g>
		<rect x="93.9" y="18.7" width="38.8" height="15.4"/>
		<rect x="93.9" y="55.6" width="44.5" height="15.4"/>
		<polygon class="st0" points="0.2,135.2 49.6,79.6 19.5,79.6 		"/>
		<polygon points="85.2,0.9 55.1,0.9 55.1,18.7 8.6,18.7 8.6,34.2 55.1,34.2 55.1,55.6 3,55.6 3,71 55.1,71 55.1,138.5 85.2,138.5 
					"/>
		<polygon points="121.7,79.6 91.1,79.6 140.7,135.2 		"/>
	</g>
	<g>
		<polygon class="st0" points="154.6,139.1 208.1,91.8 176.6,91.8 		"/>
		<rect x="247.5" y="14.1" width="45.2" height="15.4"/>
		<polygon points="265.4,71.6 294.1,85.6 272.2,49.5 276.8,35.2 251.2,35.2 238.9,75 238.9,1.2 210.2,1.2 210.2,14.1 155.8,14.1 
			155.8,29.4 210.2,29.4 210.2,73.2 192.5,49.8 196.8,35.2 170.8,35.2 155.5,85.6 185.7,71.8 210.2,85.6 210.2,139.1 238.9,139.1 
			238.9,85.6 		"/>
		<polygon points="272.2,91.8 241.4,91.8 295.5,139.1 		"/>
	</g>
	<g>
		<g>
			<polygon points="452.5,58 423.5,58 409,87.2 437.9,87.2 			"/>
			<polygon points="377.2,72.7 377.2,124.5 362.8,124.5 369.3,139.1 406.4,139.1 406.4,58.2 365,58.2 			"/>
			<polygon class="st0" points="438.1,92.6 410.1,92.6 454,139 			"/>
		</g>
		<polygon points="407.8,12.4 407.8,27.1 421.7,27.1 421.7,36.8 346.9,36.8 346.9,27.1 401.2,27.1 401.2,12.4 396.8,1.5 365.8,1.5 
			370,12.4 316.9,12.4 316.9,42.8 327.9,42.8 327.9,51.8 342.4,51.8 316.1,83.2 339.6,83.2 318.1,108.7 342.1,108.7 316.4,139.1 
			376.2,106.2 353.7,106.2 374.6,81.7 351.2,81.7 377.1,51.8 441,51.8 441,42.8 451.4,42.8 451.4,12.4 		"/>
	</g>
</g>
</svg>
