<?xml version="1.0" encoding="utf-8"?>
<!-- Generator: Adobe Illustrator 23.1.1, SVG Export Plug-In . SVG Version: 6.00 Build 0)  -->
<svg version="1.1" id="圖層_1" xmlns="http://www.w3.org/2000/svg" xmlns:xlink="http://www.w3.org/1999/xlink" x="0px" y="0px"
	 viewBox="0 0 795.5 193.6" style="enable-background:new 0 0 795.5 193.6;" xml:space="preserve">
<style type="text/css">
	.st0{fill:#231815;}
	.st1{fill:#009FE8;}
</style>
<rect x="641.5" y="2.2" class="st0" width="154" height="70.4"/>
<rect x="641.5" y="123.2" class="st0" width="154" height="70.4"/>
<g>
	<path class="st1" d="M292.9,193.6c51.7,0,93.6-42.3,93.6-94.6H199.2C199.2,151.2,241.2,193.6,292.9,193.6z"/>
	<path class="st1" d="M292.9,4.4c-51.7,0-93.6,42.3-93.6,94.6h187.2C386.5,46.8,344.6,4.4,292.9,4.4z"/>
</g>
<rect y="37.4" class="st0" width="69.6" height="156.2"/>
<ellipse class="st1" cx="34.9" cy="37.4" rx="34.8" ry="35.2"/>
<rect x="119.2" y="4.4" class="st0" width="69.6" height="189.2"/>
<rect x="74.3" y="89.2" class="st0" width="104.2" height="70.4"/>
<ellipse class="st1" cx="74.3" cy="124.5" rx="34.8" ry="35.2"/>
<rect x="606.6" y="37.4" class="st0" width="69.6" height="156.2"/>
<ellipse class="st0" cx="641.5" cy="37.4" rx="34.8" ry="35.2"/>
<ellipse class="st1" cx="698.6" cy="99" rx="34.8" ry="35.2"/>
<rect x="399.3" y="37.4" class="st0" width="69.6" height="156.2"/>
<g>
	<polygon class="st0" points="519.2,71.4 469.9,121.1 409.5,60.1 458.8,10.3 	"/>
	<ellipse class="st0" cx="434.1" cy="35.2" rx="34.8" ry="35.2"/>
	<ellipse class="st0" cx="494.6" cy="96.3" rx="34.8" ry="35.2"/>
</g>
<g>
	<rect x="520.2" y="37.4" class="st0" width="69.6" height="156.2"/>
	<ellipse class="st0" cx="555" cy="35.2" rx="34.8" ry="35.2"/>
</g>
<polygon class="st0" points="530.4,10.3 579.6,60.1 519.2,121.1 469.9,71.4 "/>
<ellipse class="st1" cx="555" cy="35.2" rx="34.8" ry="35.2"/>
</svg>
